<svg xmlns="http://www.w3.org/2000/svg" width="24" height="24" viewBox="0 0 256 256"><path fill="#4B7A38" d="M223.45,40.07a8,8,0,0,0-7.52-7.52C139.8,28.08,78.82,50,52.82,94a87.09,87.09,0,0,0-12.76,49c.57,15.92,5.21,32,13.79,47.85l-19.51,19.5a8,8,0,0,0,11.32,11.32l19.51-19.51C81,210.73,97.09,215.37,113,215.94q1.67.06,3.33.06A86.93,86.93,0,0,0,162,203.18C206,177.18,227.93,116.21,223.45,40.07ZM153.75,185.67a71.07,71.07,0,0,1-61,7.59L160.4,125.6a8,8,0,0,0-11.31-11.31L81.43,181.94a71.18,71.18,0,0,1-12.31-28.66,71,71,0,0,1,1.21-33.63C82.35,87.58,121.3,68.52,168.08,52.6,199.41,78,209,120.58,153.75,185.67Z"/></svg>